{"title":"Moto3 2013 Round 17 Valencia, Spain Race MotoGP","uid":9182653,"size":808663832,"categoryP":"video","categoryS":"tv_shows","magnet":"?xt=urn:btih:bc72037f9e7f9085ba0b6347c03715085158c5da&amp;dn=Moto3+2013+Round+17+Valencia%2C+Spain+Race+MotoGP&amp;tr=udp%3A%2F%2Ftracker.openbittorrent.com%3A80&amp;tr=udp%3A%2F%2Fopen.demonii.com%3A1337&amp;tr=udp%3A%2F%2Ftracker.coppersurfer.tk%3A6969&amp;tr=udp%3A%2F%2Fexodus.desync.com%3A6969","seeders":1,"leechers":0,"uploader":"totocon","files":2,"time":1384249239,"description":"Moto3 2013 Round 17 Valencia, Spain Race MotoGP\n\nThis contains a 30 seconds sample mkv and the race. Language is english.\n\nSeed untill 1:1 or higher please.\n\n\nFormat                                   : Matroska\nFormat version                           : Version 2\nFile size                                : 766 MiB\nDuration                                 : 1h 20mn\nOverall bit rate                         : 1 333 Kbps\nWriting application                      : HandBrake 0.9.9\nWriting library                          : libmkv 0.6.5\n\nVideo\nID                                       : 1\nFormat                                   : AVC\nFormat/Info                              : Advanced Video Codec\nFormat profile                           : &lt;a class=&quot;__cf_email__&quot; href=&quot;/cdn-cgi/l/email-protection&quot; data-cfemail=&quot;feb39f9790beb2cad0ce&quot;&gt;[email&amp;#160;protected]&lt;/a&gt;&lt;script cf-hash='f9e31' type=&quot;text/javascript&quot;&gt;\n/* &lt;![CDATA[ */!function(){try{var t=&quot;currentScript&quot;in document?document.currentScript:function(){for(var t=document.getElementsByTagName(&quot;script&quot;),e=t.length;e--;)if(t[e].getAttribute(&quot;cf-hash&quot;))return t[e]}();if(t&amp;&amp;t.previousSibling){var e,r,n,i,c=t.previousSibling,a=c.getAttribute(&quot;data-cfemail&quot;);if(a){for(e=&quot;&quot;,r=parseInt(a.substr(0,2),16),n=2;a.length-n;n+=2)i=parseInt(a.substr(n,2),16)^r,e+=String.fromCharCode(i);e=document.createTextNode(e),c.parentNode.replaceChild(e,c)}}}catch(u){}}();/* ]]&gt; */&lt;/script&gt;\nFormat settings, CABAC                   : Yes\nFormat settings, ReFrames                : 4 frames\nCodec ID                                 : V_MPEG4/ISO/AVC\nDuration                                 : 1h 20mn\nBit rate                                 : 1 200 Kbps\nWidth                                    : 702 pixels\nHeight                                   : 396 pixels\nDisplay aspect ratio                     : 16:9\nOriginal display aspect ratio            : 16:9\nFrame rate mode                          : Constant\nFrame rate                               : 25.000 fps\nColor space                              : YUV\nChroma subsampling                       : 4:2:0\nBit depth                                : 8 bits\nScan type                                : Progressive\nBits/(Pixel*Frame)                       : 0.173\nStream size                              : 678 MiB (88%)\nWriting library                          : x264 core 130 r2273 b3065e6\nEncoding settings                        : cabac=1 // deblock=1:0:0 / analyse=0x1:0x111 / me=hex / subme=2 / psy=1 / psy_rd=1.00:0.00 // me_range=16 / chroma_me=1 / trellis=0 / 8x8dct=0 / cqm=0 / deadzone=21,11 / fast_pskip=1 / chroma_qp_offset=0 / threads=6 / lookahead_threads=2 / sliced_threads=0 / nr=0 / decimate=1 / interlaced=0 / bluray_compat=0 / constrained_intra=0 / bframes=3 / b_pyramid=2 / b_adapt=1 / b_bias=0 / direct=1 / weightb=1 / open_gop=0 / weightp=1 / keyint=500 / keyint_min=50 / scenecut=40 / intra_refresh=0 / rc_lookahead=10 / rc=2pass / mbtree=1 / bitrate=1200 / ratetol=1.0 / qcomp=0.60 / qpmin=0 / qpmax=69 / qpstep=4 / cplxblur=20.0 / qblur=0.5 / vbv_maxrate=20000 / vbv_bufsize=25000 / nal_hrd=none / ip_ratio=1.40 / aq=1:1.00\nLanguage                                 : English\nDefault                                  : Yes\nForced                                   : No\nColor primaries                          : BT.709\nTransfer characteristics                 : BT.709\nMatrix coefficients                      : BT.709\n\nAudio\nID                                       : 2\nFormat                                   : AC-3\nFormat/Info                              : Audio Coding 3\nMode extension                           : CM (complete main)\nFormat settings, Endianness              : Big\nCodec ID                                 : A_AC3\nDuration                                 : 1h 20mn\nBit rate mode                            : Constant\nBit rate                                 : 128 Kbps\nChannel(s)                               : 2 channels\nChannel positions                        : Front: L R\nSampling rate                            : 48.0 KHz\nBit depth                                : 16 bits\nCompression mode                         : Lossy\nStream size                              : 73.6 MiB (10%)\nLanguage                                 : English\nDefault                                  : Yes\nForced                                   : No\n\nCredits: olvlas, Nepotu","torrent":{"xt":"urn:btih:bc72037f9e7f9085ba0b6347c03715085158c5da","amp;dn":"Moto3+2013+Round+17+Valencia%2C+Spain+Race+MotoGP","amp;tr":["udp%3A%2F%2Ftracker.openbittorrent.com%3A80","udp%3A%2F%2Fopen.demonii.com%3A1337","udp%3A%2F%2Ftracker.coppersurfer.tk%3A6969","udp%3A%2F%2Fexodus.desync.com%3A6969"],"infoHash":"bc72037f9e7f9085ba0b6347c03715085158c5da","infoHashBuffer":{"type":"Buffer","data":[188,114,3,127,158,127,144,133,186,11,99,71,192,55,21,8,81,88,197,218]},"announce":[],"urlList":[]}}